<svg width="760" height="820" viewBox="0 0 760 820" fill="none" xmlns="http://www.w3.org/2000/svg">
  <rect width="760" height="820" rx="42" fill="#F8FBF4"/>
  <rect x="48" y="50" width="664" height="720" rx="28" fill="#FFFFFF" stroke="#D5E5D1" stroke-width="2"/>
  <rect x="84" y="92" width="188" height="16" rx="8" fill="#174527"/>
  <rect x="84" y="132" width="440" height="58" rx="16" fill="#C9EBD1"/>
  <rect x="84" y="220" width="592" height="236" rx="24" fill="#E1EFDF"/>
  <rect x="118" y="254" width="214" height="32" rx="16" fill="#1F8F52"/>
  <rect x="118" y="312" width="472" height="24" rx="12" fill="#FFFFFF"/>
  <rect x="118" y="356" width="322" height="24" rx="12" fill="#FFFFFF"/>
  <circle cx="608" cy="322" r="66" fill="#D8E8FF"/>
  <path d="M573 335C588 307 609 292 642 289C629 317 607 335 573 335Z" fill="#1F8F52"/>
  <rect x="84" y="492" width="282" height="198" rx="22" fill="#F2F8EF" stroke="#D5E5D1" stroke-width="2"/>
  <rect x="394" y="492" width="282" height="198" rx="22" fill="#F2F8EF" stroke="#D5E5D1" stroke-width="2"/>
  <rect x="118" y="530" width="150" height="18" rx="9" fill="#174527"/>
  <rect x="118" y="574" width="190" height="86" rx="18" fill="#D8E8FF"/>
  <rect x="428" y="530" width="138" height="18" rx="9" fill="#174527"/>
  <rect x="428" y="574" width="190" height="86" rx="18" fill="#C9EBD1"/>
</svg>

